<!-- <svg viewBox="0 0 36 36" fill="none" role="img" xmlns="http://www.w3.org/2000/svg" width="80" height="80"><title>Mary Baker</title><mask id="mask__beam" maskUnits="userSpaceOnUse" x="0" y="0" width="36" height="36"><rect width="36" height="36" rx="72" fill="#FFFFFF"></rect></mask><g mask="url(#mask__beam)"><rect width="36" height="36" fill="#f2f2f2"></rect><rect x="0" y="0" width="36" height="36" transform="translate(4 4) rotate(340 18 18) scale(1.1)" fill="#6c63ff" rx="36"></rect><g transform="translate(-4 -1) rotate(0 18 18)"><path d="M15 20c2 1 4 1 6 0" stroke="#FFFFFF" fill="none" stroke-linecap="round"></path><rect x="14" y="14" width="1.5" height="2" rx="1" stroke="none" fill="#FFFFFF"></rect><rect x="20" y="14" width="1.5" height="2" rx="1" stroke="none" fill="#FFFFFF"></rect></g></g></svg> -->
<svg viewBox="0 0 80 80" fill="none" role="img" xmlns="http://www.w3.org/2000/svg" width="80" height="80"><title>Mary Walton</title><mask id="mask__bauhaus" maskUnits="userSpaceOnUse" x="0" y="0" width="80" height="80"><rect width="80" height="80" rx="160" fill="#FFFFFF"></rect></mask><g mask="url(#mask__bauhaus)"><rect width="80" height="80" fill="#ff6584"></rect><rect x="10" y="30" width="80" height="80" fill="#2f2e41" transform="translate(8 8) rotate(92 40 40)"></rect><circle cx="40" cy="40" fill="#f2f2f2" r="16" transform="translate(18 18)"></circle><line x1="0" y1="40" x2="80" y2="40" stroke-width="2" stroke="#1a1a79" transform="translate(-4 -4) rotate(184 40 40)"></line></g></svg>